# xmcd
#
# Track frame offsets: 
#        150
#        21095
#        45707
#        68479
#        85838
#        106727
#        127101
#        146476
#        168483
#
# Disc length: 2607 seconds
#
# Revision: 0
# Processed by: cddbd v1.5.1PL2 Copyright (c) Steve Scherf et al.
# Submitted via: ExactAudioCopy v0.95b3
#
DISCID=710a2d09
DTITLE=Whitney Houston - Whitney Houston
DYEAR=1985
DGENRE=Blues
TTITLE0=You Give Good Love
TTITLE1=Thinking About You
TTITLE2=Someone For Me
TTITLE3=Nobody Loves Me Like You Do
TTITLE4=How Will I Know
TTITLE5=All At Once
TTITLE6=Take Good Care Of My Heart
TTITLE7=Greatest Love Of All
TTITLE8=Hold Me
EXTD=
EXTT0=
EXTT1=
EXTT2=
EXTT3=
EXTT4=
EXTT5=
EXTT6=
EXTT7=
EXTT8=
PLAYORDER=
